<svg xmlns="http://www.w3.org/2000/svg"  viewBox="0 0 48 48" width="48px" height="48px"><linearGradient id="SVGID_1_" x1="34.92" x2="4.171" y1="6.427" y2="37.176" gradientUnits="userSpaceOnUse"><stop offset="0" stop-color="#60e8fe"/><stop offset=".033" stop-color="#6ae9fe"/><stop offset=".197" stop-color="#97f0fe"/><stop offset=".362" stop-color="#bdf5ff"/><stop offset=".525" stop-color="#dafaff"/><stop offset=".687" stop-color="#eefdff"/><stop offset=".846" stop-color="#fbfeff"/><stop offset="1" stop-color="#fff"/></linearGradient><path fill="url(#SVGID_1_)" d="M37.054,9.27L36.27,9.403c0,0,0,0,0,0c-1.408-1.034-3.14-1.652-5.02-1.652c-4.694,0-8.5,3.806-8.5,8.5v1.5	c-12.192-0.654-15.5-9-15.5-9s-1.5,2-1.5,5c0,5,4,7,4,7c-3,0-5-1-5-1s0.5,5.5,7,8l-4,1c0,0,2,3.5,8,5c0,0-3.5,3-12,3c0,0,3.5,4,13,4	c16.268,0,22.81-15.062,22.991-24.111l0.149-0.12C40.993,13.5,38.671,8.948,37.054,9.27z"/><path fill="#10cfe3" d="M43.719,10.305C43.425,10,42.97,9.913,42.583,10.091l-0.164,0.075c-0.139,0.064-0.278,0.128-0.418,0.191	c0.407-0.649,0.73-1.343,0.953-2.061c0.124-0.396-0.011-0.829-0.339-1.085s-0.78-0.283-1.135-0.066	c-1.573,0.956-3.059,1.552-4.676,1.874L36.02,9.152c2.106,1.547,3.48,4.034,3.48,6.848c0,0.127-0.006,0.26-0.009,0.389l0.149-0.12	c3.125-2.604,4.209-4.732,4.254-4.821C44.084,11.067,44.014,10.609,43.719,10.305z"/><path fill="none" stroke="#10cfe3" stroke-linecap="round" stroke-linejoin="round" stroke-width="3" d="M15.5,33.5c0,0-3.5,3-12,3c0,0,3.5,4,13,4c6.587,0,11.581-2.471,15.203-6.012"/><path fill="none" stroke="#10cfe3" stroke-linecap="round" stroke-linejoin="round" stroke-width="3" d="M11.872,14.117C8.212,11.558,7,8.5,7,8.5s-1.5,2-1.5,5c0,5,4,7,4,7c-3,0-5-1-5-1s0.5,5.5,7,8l-4,1	c0,0,2,3.5,8,5"/><path fill="none" stroke="#10cfe3" stroke-linecap="round" stroke-linejoin="round" stroke-width="3" d="M36.02,28.76c2.399-4.34,3.48-9.09,3.48-12.76c0-4.694-3.806-8.5-8.5-8.5s-8.5,3.806-8.5,8.5v1.5	c-1.953-0.105-3.679-0.407-5.199-0.841"/></svg>